<svg xmlns="http://www.w3.org/2000/svg" version="1.1" viewBox="-5.0 -10.0 110.0 135.0">
 <path d="m44.527 54.465-4.6602 8.082c-0.37891 0.65234-0.15234 1.4883 0.5 1.8672 0.21484 0.125 0.44922 0.18359 0.68359 0.18359 0.47266 0 0.93359-0.24609 1.1875-0.68359l5.4492-9.4492h6.5938c1.5391 1.4844 3.6328 2.4023 5.9336 2.4023h28.617c0.75391 0 1.3672-0.61328 1.3672-1.3672s-0.61328-1.3672-1.3672-1.3672l-28.621 0.003907c-3.207 0-5.8164-2.6094-5.8164-5.8164 0-3.207 2.6094-5.8164 5.8164-5.8164 3.207 0 5.8164 2.6094 5.8164 5.8164 0 0.75391 0.61328 1.3672 1.3672 1.3672 0.75391 0 1.3672-0.61328 1.3672-1.3672 0-4.7148-3.8359-8.5508-8.5508-8.5508-4.7148 0-8.5508 3.8359-8.5508 8.5508 0 1.2148 0.25781 2.3672 0.71484 3.4141h-5.4297-0.0625-7.543c0.61328-0.92969 0.67578-2.1133 0.15234-3.1055-0.53125-1.0039-1.5625-1.6289-2.6992-1.6289h-12.559l3.5469-18.945c0.22656-1.1133-0.34375-2.1992-1.3906-2.6484-1.0547-0.44922-2.2383-0.10547-2.8867 0.83984l-12.977 18.988c-1.4609-2.2695-2.2539-4.9336-2.2539-7.6602 0-6.6289 4.6992-12.449 11.172-13.844 0.48047-0.10156 0.86719-0.45312 1.0156-0.92188 2.2539-7.0664 8.7578-11.816 16.188-11.816 7.1328 0 13.52 4.5234 15.949 11.137-1.3203 0.59766-2.5625 1.3672-3.6953 2.3008-0.58594 0.48047-0.66797 1.3398-0.1875 1.9258 0.26953 0.32812 0.66016 0.5 1.0586 0.5 0.30469 0 0.61328-0.10156 0.86719-0.3125 1.2383-1.0195 2.625-1.8047 4.1211-2.3398 0.003906 0 0.003906-0.003906 0.007812-0.003906 1.4922-0.51953 3.0586-0.78125 4.6484-0.78125 7.3789 0 13.484 5.6484 14.105 12.945-0.92188 1.3633-1.4609 3.0078-1.4609 4.7773 0 4.7148 3.8359 8.5508 8.5508 8.5508h15.527c0.75391 0 1.3672-0.61328 1.3672-1.3672 0-0.75391-0.61328-1.3672-1.3672-1.3672l-15.535-0.003906c-3.207 0-5.8164-2.6094-5.8164-5.8164s2.6094-5.8164 5.8164-5.8164 5.8164 2.6094 5.8164 5.8164c0 0.75391 0.61328 1.3672 1.3672 1.3672 0.75391 0 1.3672-0.61328 1.3672-1.3672 0-4.7148-3.8359-8.5508-8.5508-8.5508-1.7305 0-3.3398 0.51562-4.6875 1.4023-1.6484-7.6445-8.4414-13.309-16.512-13.309-1.4375 0-2.8555 0.17969-4.2344 0.53516-2.8086-7.6953-10.238-12.957-18.531-12.957-8.3633 0-15.715 5.1836-18.539 12.984-3.418 0.90625-6.5039 2.8906-8.7578 5.6484-2.457 3.0039-3.8086 6.8008-3.8086 10.684 0 3.6367 1.1797 7.1758 3.3398 10.074l-5.8477 8.5586c-0.64062 0.9375-0.71094 2.1445-0.17969 3.1445 0.53125 1.0039 1.5625 1.6289 2.6992 1.6289h12.559l-3.5469 18.945c-0.22656 1.1133 0.34375 2.1992 1.3906 2.6484 0.30859 0.13281 0.62891 0.19531 0.94531 0.19531 0.75781 0 1.4844-0.36719 1.9414-1.0352l18.629-27.266zm-26.961 24.293 3.5352-18.895c0.074219-0.39844-0.03125-0.8125-0.29297-1.125-0.26172-0.3125-0.64453-0.49219-1.0508-0.49219l-14.203-0.003906c-0.15625 0-0.23828-0.09375-0.28125-0.16797-0.039063-0.078125-0.070313-0.19531 0.019531-0.32812l19.488-28.523-3.5352 18.895c-0.074219 0.39844 0.03125 0.8125 0.29297 1.125 0.26172 0.3125 0.64453 0.49219 1.0508 0.49219h14.207c0.15625 0 0.23828 0.09375 0.28125 0.16797 0.039063 0.078125 0.070313 0.19531-0.019531 0.32812zm20.195-7.0859-3.8438 6.6641c-0.25391 0.4375-0.71484 0.68359-1.1875 0.68359-0.23047 0-0.46484-0.058593-0.67969-0.18359-0.65234-0.37891-0.87891-1.2148-0.50391-1.8672l3.8438-6.6641c0.37891-0.65234 1.2148-0.87891 1.8672-0.5 0.65625 0.375 0.87891 1.2109 0.50391 1.8672zm-12.332 12.754-3.8242 6.6328c-0.25391 0.4375-0.71484 0.68359-1.1875 0.68359-0.23047 0-0.46875-0.058594-0.68359-0.18359-0.65234-0.37891-0.87891-1.2148-0.5-1.8672l3.8242-6.6328c0.37891-0.65234 1.2148-0.87891 1.8672-0.5 0.65625 0.375 0.87891 1.2109 0.50391 1.8672zm19.414-4.3438-5.8438 10.133c-0.25391 0.4375-0.71484 0.68359-1.1875 0.68359-0.23047 0-0.46875-0.058594-0.68359-0.18359-0.65234-0.37891-0.87891-1.2148-0.5-1.8672l5.8438-10.133c0.37891-0.65234 1.2148-0.87891 1.8672-0.5 0.65625 0.375 0.88281 1.2109 0.50391 1.8672zm9.8359-18.164-6.8633 11.902c-0.25391 0.4375-0.71484 0.68359-1.1875 0.68359-0.23047 0-0.46875-0.058594-0.68359-0.18359-0.65234-0.37891-0.87891-1.2148-0.5-1.8672l6.8633-11.902c0.37891-0.65234 1.2148-0.87891 1.8672-0.5 0.65625 0.375 0.87891 1.2109 0.50391 1.8672zm-42.777 9.9922-6.6641 11.555c-0.25391 0.4375-0.71484 0.68359-1.1875 0.68359-0.23047 0-0.46484-0.058594-0.67969-0.18359-0.65234-0.37891-0.87891-1.2148-0.50391-1.8672l6.6602-11.555c0.37891-0.65234 1.2148-0.87891 1.8672-0.5 0.66016 0.37891 0.88281 1.2148 0.50781 1.8672zm85.598-9.2227c0 0.75391-0.61328 1.3672-1.3672 1.3672h-28.738c-3.207 0-5.8164 2.6094-5.8164 5.8164 0 3.207 2.6094 5.8164 5.8164 5.8164s5.8164-2.6094 5.8164-5.8164c0-0.75391 0.61328-1.3672 1.3672-1.3672s1.3672 0.61328 1.3672 1.3672c0 4.7148-3.8359 8.5508-8.5508 8.5508-4.7148 0-8.5508-3.8359-8.5508-8.5508s3.8359-8.5508 8.5508-8.5508h28.738c0.75391 0 1.3672 0.61328 1.3672 1.3672z"/>
<text x="0.0" y="117.5" font-size="5.0" font-weight="bold" font-family="Arbeit Regular, Helvetica, Arial-Unicode, Arial, Sans-serif" fill="#000000">Created by Wehape</text><text x="0.0" y="122.5" font-size="5.0" font-weight="bold" font-family="Arbeit Regular, Helvetica, Arial-Unicode, Arial, Sans-serif" fill="#000000">from Noun Project</text></svg>