<svg xmlns="http://www.w3.org/2000/svg" version="1.1" viewBox="-5.0 -10.0 110.0 135.0">
 <path d="m61.879 7.2344h25.203c0.79688 0 1.4375-0.64453 1.4375-1.4375 0-0.79688-0.64453-1.4375-1.4375-1.4375h-25.203c-0.79688 0-1.4375 0.64453-1.4375 1.4375-0.003906 0.79688 0.64062 1.4375 1.4375 1.4375z"/>
 <path d="m5.7969 19.855h39.848c0.79688 0 1.4375-0.64453 1.4375-1.4375 0-0.79688-0.64453-1.4375-1.4375-1.4375h-39.848c-0.79688 0-1.4375 0.64453-1.4375 1.4375-0.003906 0.79688 0.64062 1.4375 1.4375 1.4375z"/>
 <path d="m94.203 42.246h-8.5117c-0.19531-2.2539-0.83594-4.4688-1.9297-6.4883-3.0117-5.6016-8.8359-8.9609-15.172-8.7344-3.8359 0.13281-7.3984 1.5391-10.195 3.8984-2.8867-2.2969-6.4492-3.5508-10.184-3.5508-3.0195 0-5.8555 0.81641-8.2969 2.2344h-8.5117c-0.79688 0-1.4375 0.64453-1.4375 1.4375 0 0.79688 0.64453 1.4375 1.4375 1.4375h4.8789c-1.9297 2.0391-3.3477 4.582-4.0391 7.4492-5.0195-0.13281-9.8672 1.7852-13.461 5.3789-2.9297 2.9297-4.7461 6.7148-5.2461 10.797h-7.7539c-0.79688 0-1.4375 0.64453-1.4375 1.4375 0 0.79688 0.64453 1.4375 1.4375 1.4375h16.5c0.79688 0 1.4375-0.64453 1.4375-1.4375 0-0.79688-0.64453-1.4375-1.4375-1.4375h-5.8555c0.48047-3.3047 2-6.3789 4.3867-8.7539 3.2773-3.2773 7.7969-4.9062 12.398-4.4688 2.8164 0.4375 5.3477 1.9062 7.1445 4.1445 0.28516 0.35547 0.70312 0.53906 1.1211 0.53906 0.31641 0 0.63281-0.10156 0.89844-0.31641 0.62109-0.5 0.71484-1.4062 0.21484-2.0195-1.9375-2.3984-4.5625-4.0938-7.5-4.8672 1.5391-5.9297 6.8477-10.102 13.094-10.102 2.9688 0 5.8047 0.96094 8.1328 2.7227-0.9375 1.1211-1.7344 2.3672-2.3672 3.7461-0.33594 0.72266-0.019531 1.582 0.70312 1.9062 0.72266 0.33594 1.582 0.019531 1.9062-0.70312 2.1953-4.7656 6.8164-7.8359 12.094-8.0117 5.2773-0.17188 10.051 2.5938 12.539 7.2227 0.85547 1.5938 1.3789 3.3477 1.5625 5.1211h-10.66c-0.79688 0-1.4375 0.64453-1.4375 1.4375 0 0.79688 0.64453 1.4375 1.4375 1.4375h10.703c-0.0625 0.61328-0.17188 1.2148-0.31641 1.8164-1.9805-0.10156-3.9883 0.23438-5.8672 1.0508-0.72266 0.31641-1.0625 1.1641-0.74609 1.8984 0.31641 0.72266 1.1641 1.0625 1.8984 0.74609 3.8047-1.6641 8.3359-0.79688 11.254 2.1641 2.9609 3 3.7656 7.4375 2.0625 11.297-1.7344 3.8555-5.6016 6.2148-9.8047 5.9688h-0.082032-32.602c-0.79688 0-1.4375 0.64453-1.4375 1.4375 0 0.79688 0.64453 1.4375 1.4375 1.4375h32.562c0.22266 0.011719 0.44922 0.019531 0.67188 0.019531 5.1328 0 9.7461-2.9609 11.867-7.6953 2.2031-4.9609 1.1641-10.645-2.6328-14.488-1.6133-1.6328-3.6016-2.7656-5.7344-3.3672 0.17188-0.75391 0.28516-1.5195 0.35547-2.2852h8.5195c0.79688 0 1.4375-0.64453 1.4375-1.4375 0.003906-0.79688-0.64062-1.457-1.4375-1.457z"/>
 <path d="m22.461 81.562c0 0.79688 0.64453 1.4375 1.4375 1.4375h52.195c0.79688 0 1.4375-0.64453 1.4375-1.4375 0-0.79688-0.64453-1.4375-1.4375-1.4375l-52.195-0.003906c-0.79688 0-1.4375 0.64453-1.4375 1.4414z"/>
 <path d="m36.57 92.766h-30.773c-0.79688 0-1.4375 0.64453-1.4375 1.4375 0 0.79688 0.64453 1.4375 1.4375 1.4375h30.766c0.79688 0 1.4375-0.64453 1.4375-1.4375 0-0.79688-0.64453-1.4375-1.4297-1.4375z"/>
 <path d="m5.7969 32.48h15.672c0.79688 0 1.4375-0.64453 1.4375-1.4375 0-0.79688-0.64453-1.4375-1.4375-1.4375l-15.672-0.003907c-0.79688 0-1.4375 0.64453-1.4375 1.4375-0.003906 0.79688 0.64062 1.4414 1.4375 1.4414z"/>
 <path d="m94.203 29.602h-5.1836c-0.79688 0-1.4375 0.64453-1.4375 1.4375 0 0.79688 0.64453 1.4375 1.4375 1.4375h5.1836c0.79688 0 1.4375-0.64453 1.4375-1.4375 0.003906-0.79297-0.64062-1.4375-1.4375-1.4375z"/>
 <path d="m5.7969 83h12.645c0.79688 0 1.4375-0.64453 1.4375-1.4375 0-0.79688-0.64453-1.4375-1.4375-1.4375l-12.645-0.003906c-0.79688 0-1.4375 0.64453-1.4375 1.4375-0.003906 0.79688 0.64062 1.4414 1.4375 1.4414z"/>
 <path d="m94.203 80.121h-12.641c-0.79688 0-1.4375 0.64453-1.4375 1.4375 0 0.79688 0.64453 1.4375 1.4375 1.4375h12.645c0.79688 0 1.4375-0.64453 1.4375-1.4375 0-0.79297-0.64453-1.4375-1.4414-1.4375z"/>
 <path d="m43.387 92.766h-2.1133c-0.79688 0-1.4375 0.64453-1.4375 1.4375 0 0.79688 0.64453 1.4375 1.4375 1.4375h2.1133c0.79688 0 1.4375-0.64453 1.4375-1.4375 0.003906-0.79688-0.64062-1.4375-1.4375-1.4375z"/>
 <path d="m94.203 92.766h-46.297c-0.79688 0-1.4375 0.64453-1.4375 1.4375 0 0.79688 0.64453 1.4375 1.4375 1.4375h46.285c0.79688 0 1.4375-0.64453 1.4375-1.4375 0.003906-0.79688-0.62891-1.4375-1.4258-1.4375z"/>
 <path d="m94.203 16.98h-22.242c-0.79688 0-1.4375 0.64453-1.4375 1.4375 0 0.79688 0.64453 1.4375 1.4375 1.4375h22.234c0.79688 0 1.4375-0.64453 1.4375-1.4375 0.011719-0.79688-0.63281-1.4375-1.4297-1.4375z"/>
 <path d="m54.348 16.98c-0.79688 0-1.4375 0.64453-1.4375 1.4375 0 0.79688 0.64453 1.4375 1.4375 1.4375h12.539c0.79688 0 1.4375-0.64453 1.4375-1.4375 0-0.79688-0.64453-1.4375-1.4375-1.4375z"/>
 <path d="m5.7969 7.2344h23.223c0.79688 0 1.4375-0.64453 1.4375-1.4375 0-0.79688-0.64453-1.4375-1.4375-1.4375l-23.223-0.003906c-0.79688 0-1.4375 0.64453-1.4375 1.4375-0.003906 0.80078 0.64062 1.4414 1.4375 1.4414z"/>
 <path d="m33.664 7.2344h22.777c0.79688 0 1.4375-0.64453 1.4375-1.4375 0-0.79688-0.64453-1.4375-1.4375-1.4375l-22.777-0.003906c-0.79687 0-1.4375 0.64453-1.4375 1.4375-0.003906 0.80078 0.64063 1.4414 1.4375 1.4414z"/>
 <path d="m91.449 7.2344h2.7539c0.79688 0 1.4375-0.64453 1.4375-1.4375 0-0.79688-0.64453-1.4375-1.4375-1.4375h-2.7539c-0.79688 0-1.4375 0.64453-1.4375 1.4375 0 0.79688 0.64062 1.4375 1.4375 1.4375z"/>
 <path d="m66.672 45.121c0.79688 0 1.4375-0.64453 1.4375-1.4375 0-0.79688-0.64453-1.4375-1.4375-1.4375h-7.0117c-0.79688 0-1.4375 0.64453-1.4375 1.4375 0 0.79688 0.64453 1.4375 1.4375 1.4375z"/>
 <path d="m4.3555 71.512c0 0.79688 0.64453 1.4375 1.4375 1.4375h36.266c0.79688 0 1.4375-0.64453 1.4375-1.4375 0-0.79688-0.64453-1.4375-1.4375-1.4375l-36.262-0.003907c-0.79688 0-1.4414 0.64453-1.4414 1.4414z"/>
 <path d="m50.367 58.988c0.79687 0 1.4375-0.64453 1.4375-1.4375 0-0.79688-0.64453-1.4375-1.4375-1.4375h-22.418c-0.79688 0-1.4375 0.64453-1.4375 1.4375 0 0.79688 0.64453 1.4375 1.4375 1.4375z"/>
 <path d="m5.7969 45.121h4.9297c0.79688 0 1.4375-0.64453 1.4375-1.4375 0-0.79688-0.64453-1.4375-1.4375-1.4375h-4.9297c-0.79688 0-1.4375 0.64453-1.4375 1.4375-0.003906 0.79688 0.64062 1.4375 1.4375 1.4375z"/>
<text x="0.0" y="117.5" font-size="5.0" font-weight="bold" font-family="Arbeit Regular, Helvetica, Arial-Unicode, Arial, Sans-serif" fill="#000000">Created by Ariful Rohman</text><text x="0.0" y="122.5" font-size="5.0" font-weight="bold" font-family="Arbeit Regular, Helvetica, Arial-Unicode, Arial, Sans-serif" fill="#000000">from Noun Project</text></svg>