<svg xmlns="http://www.w3.org/2000/svg" version="1.1" viewBox="-5.0 -10.0 110.0 135.0">
 <path d="m75.801 48.816c0-8.375-6.8125-15.188-15.188-15.188-5.3789 0-10.285 2.8047-13.023 7.3789-2.5312-1.2188-5.3633-1.9062-8.3477-1.9062-10.039 0-18.309 7.7227-19.176 17.547-6.0273 0.80078-10.691 5.9727-10.691 12.215 0 6.7969 5.5273 12.324 12.324 12.324h37.176c7.3906 0 13.402-6.0117 13.402-13.402 0-2.6484-0.78125-5.1094-2.1133-7.1914 3.543-2.8711 5.6406-7.1758 5.6406-11.781zm-15.184-11.559c6.375 0 11.559 5.1875 11.559 11.559 0 3.5352-1.6211 6.832-4.3594 9.0195-2.375-2.1367-5.5039-3.4492-8.9414-3.4492-0.26172 0-0.52734 0.007812-0.78906 0.023437-0.98047-4.7305-3.6758-8.7656-7.3711-11.508 2.0859-3.4883 5.8047-5.6445 9.9023-5.6445zm-1.7422 40.309h-37.176c-4.7969 0-8.6953-3.9023-8.6953-8.6992 0-4.7969 3.9023-8.6953 8.6211-8.6992 0.042969 0.003906 0.14062 0.007812 0.18359 0.007812 1 0 1.8125-0.81641 1.8125-1.8164 0-8.6172 7.0078-15.625 15.625-15.625 7.9805 0 14.652 5.9766 15.523 13.898 0.054688 0.50781 0.32031 0.96484 0.73438 1.2656 0.41016 0.30078 0.92969 0.41406 1.4297 0.3125 0.64062-0.12891 1.2969-0.19531 1.9453-0.19531 5.3906 0 9.7734 4.3867 9.7734 9.7734 0 5.3906-4.3867 9.7773-9.7734 9.7773zm-0.070312-50.211v-6.7344c0-1 0.8125-1.8125 1.8125-1.8125s1.8125 0.8125 1.8125 1.8125v6.7344c0 1-0.8125 1.8125-1.8125 1.8125s-1.8125-0.8125-1.8125-1.8125zm15.707 7.5703c-0.70703-0.70703-0.70703-1.8555 0-2.5625l4.7617-4.7617c0.70703-0.70703 1.8555-0.70703 2.5625 0 0.70703 0.70703 0.70703 1.8555 0 2.5625l-4.7617 4.7617c-0.35547 0.35547-0.81641 0.53125-1.2812 0.53125-0.46484 0-0.92969-0.17578-1.2812-0.53125zm16.113 13.891c0 1-0.8125 1.8125-1.8125 1.8125h-6.7344c-1 0-1.8125-0.8125-1.8125-1.8125s0.8125-1.8125 1.8125-1.8125h6.7344c1 0 1.8125 0.8125 1.8125 1.8125zm-8.7891 18.656c0.70703 0.70703 0.70703 1.8555 0 2.5625-0.35547 0.35547-0.81641 0.53125-1.2812 0.53125-0.46484 0-0.92969-0.17578-1.2812-0.53125l-4.7617-4.7617c-0.70703-0.70703-0.70703-1.8555 0-2.5625 0.70703-0.70703 1.8555-0.70703 2.5625 0zm-42.438-37.309c-0.70703-0.70703-0.70703-1.8555 0-2.5625 0.70703-0.70703 1.8555-0.70703 2.5625 0l4.7617 4.7617c0.70703 0.70703 0.70703 1.8555 0 2.5625-0.35547 0.35547-0.81641 0.53125-1.2812 0.53125s-0.92969-0.17578-1.2812-0.53125z"/>
<text x="0.0" y="117.5" font-size="5.0" font-weight="bold" font-family="Arbeit Regular, Helvetica, Arial-Unicode, Arial, Sans-serif" fill="#000000">Created by kusuma potter</text><text x="0.0" y="122.5" font-size="5.0" font-weight="bold" font-family="Arbeit Regular, Helvetica, Arial-Unicode, Arial, Sans-serif" fill="#000000">from Noun Project</text></svg>