<svg xmlns="http://www.w3.org/2000/svg" version="1.1" viewBox="-5.0 -10.0 110.0 135.0">
 <path d="m77.008 9.375c-3.1445 0-6.0625 1.0547-8.3359 2.8438 7.6328 4.293 13.961 10.859 18.547 18.324 2.1289-2.2031 3.4062-5.1328 3.4062-8.3008v-12.867zm0 0-45.68 2.8438c-2.2734-1.793-5.1914-2.8438-8.3359-2.8438h-13.617v12.871c0 3.168 1.2773 6.0938 3.4062 8.3008 4.582-7.4609 10.91-14.031 18.547-18.324zm-45.68 2.8438 32.555 43.969c-7.5938-5.0625-20.148-5.0781-27.766 0-6.9883 4.6602-6.9727 11.652 0 16.301 7.5938 5.0625 20.148 5.0781 27.766 0 6.9883-4.6562 6.9727-11.652 0-16.301zm16.281 54.508h-4.7812v-4.7812h4.7812zm9.5586 0h-4.7812v-4.7812h4.7812zm0 0-7.168-54.801c-22.449 0-40.625 24.668-40.625 45.723 0 21.648 18.906 32.977 40.625 32.977 21.742 0 40.625-11.352 40.625-32.977 0-21.289-18.371-45.723-40.625-45.723zm2.3906-33.453h4.7812v4.7812h-4.7812zm-23.898 0h4.7812v4.7812h-4.7812zm30.875 43.191c-9.2031 6.1367-23.859 6.1406-33.066 0-9.7734-6.5156-9.8828-17.664 0-24.254 9.2031-6.1367 23.859-6.1406 33.066 0 9.7734 6.5156 9.8828 17.668 0 24.254z"/>
<text x="0.0" y="117.5" font-size="5.0" font-weight="bold" font-family="Arbeit Regular, Helvetica, Arial-Unicode, Arial, Sans-serif" fill="#000000">Created by Manda</text><text x="0.0" y="122.5" font-size="5.0" font-weight="bold" font-family="Arbeit Regular, Helvetica, Arial-Unicode, Arial, Sans-serif" fill="#000000">from Noun Project</text></svg>