<svg xmlns="http://www.w3.org/2000/svg" data-name="07 Snow" viewBox="0 0 64 80" x="0px" y="0px"><path d="M54.955,16.045c-.482-5.068-4.763-9.045-9.955-9.045-5.514,0-10,4.486-10,10,0,.552,.448,1,1,1s1-.448,1-1c0-4.411,3.589-8,8-8s8,3.589,8,8c0,.552,.448,1,1,1,4.411,0,8,3.589,8,8s-3.589,8-8,8h-20.025c2.438-1.825,4.025-4.727,4.025-8,0-5.192-3.978-9.473-9.045-9.955-.482-5.068-4.763-9.045-9.955-9.045s-9.473,3.978-9.955,9.045C3.978,16.527,0,20.808,0,26c0,5.514,4.486,10,10,10H54c5.514,0,10-4.486,10-10,0-5.192-3.978-9.473-9.045-9.955ZM2,26c0-4.411,3.589-8,8-8,.552,0,1-.448,1-1,0-4.411,3.589-8,8-8s8,3.589,8,8c0,.552,.448,1,1,1,4.411,0,8,3.589,8,8s-3.589,8-8,8H10c-4.411,0-8-3.589-8-8Z"/><path d="M38.707,47.293c-.391-.391-1.023-.391-1.414,0l-.707,.707h-2.77c-.035-.098-.072-.193-.116-.285l2.25-2.25c.391-.391,.391-1.023,0-1.414s-1.023-.391-1.414,0l-2.25,2.25c-.093-.044-.188-.082-.285-.116v-2.77l.707-.707c.391-.391,.391-1.023,0-1.414s-1.023-.391-1.414,0l-.293,.293-.293-.293c-.391-.391-1.023-.391-1.414,0s-.391,1.023,0,1.414l.707,.707v2.77c-.098,.035-.193,.072-.285,.116l-2.25-2.25c-.391-.391-1.023-.391-1.414,0s-.391,1.023,0,1.414l2.25,2.25c-.044,.093-.082,.188-.116,.285h-2.77l-.707-.707c-.391-.391-1.023-.391-1.414,0s-.391,1.023,0,1.414l.293,.293-.293,.293c-.391,.391-.391,1.023,0,1.414,.195,.195,.451,.293,.707,.293s.512-.098,.707-.293l.707-.707h2.77c.035,.098,.072,.193,.116,.285l-2.25,2.25c-.391,.391-.391,1.023,0,1.414,.195,.195,.451,.293,.707,.293s.512-.098,.707-.293l2.25-2.25c.093,.044,.188,.081,.285,.116v2.77l-.707,.707c-.391,.391-.391,1.023,0,1.414s1.023,.391,1.414,0l.293-.293,.293,.293c.195,.195,.451,.293,.707,.293s.512-.098,.707-.293c.391-.391,.391-1.023,0-1.414l-.707-.707v-2.77c.098-.035,.193-.072,.285-.116l2.25,2.25c.195,.195,.451,.293,.707,.293s.512-.098,.707-.293c.391-.391,.391-1.023,0-1.414l-2.25-2.25c.044-.093,.082-.188,.116-.285h2.77l.707,.707c.195,.195,.451,.293,.707,.293s.512-.098,.707-.293c.391-.391,.391-1.023,0-1.414l-.293-.293,.293-.293c.391-.391,.391-1.023,0-1.414Zm-8.707,1.707c0-.551,.449-1,1-1s1,.449,1,1-.449,1-1,1-1-.449-1-1Z"/><path d="M55.414,43l.293-.293c.391-.391,.391-1.023,0-1.414s-1.023-.391-1.414,0l-.707,.707h-2.77c-.035-.098-.072-.193-.116-.285l2.008-2.008c.391-.391,.391-1.023,0-1.414s-1.023-.391-1.414,0l-2.008,2.008c-.093-.044-.188-.082-.285-.116v-2.184c0-.552-.448-1-1-1s-1,.448-1,1v2.184c-.098,.035-.193,.072-.285,.116l-2.008-2.008c-.391-.391-1.023-.391-1.414,0s-.391,1.023,0,1.414l2.008,2.008c-.044,.093-.082,.188-.116,.285h-2.77l-.707-.707c-.391-.391-1.023-.391-1.414,0s-.391,1.023,0,1.414l.293,.293-.293,.293c-.391,.391-.391,1.023,0,1.414,.195,.195,.451,.293,.707,.293s.512-.098,.707-.293l.707-.707h2.77c.035,.098,.072,.193,.116,.285l-2.25,2.25c-.391,.391-.391,1.023,0,1.414,.195,.195,.451,.293,.707,.293s.512-.098,.707-.293l2.25-2.25c.093,.044,.188,.081,.285,.116v2.77l-.707,.707c-.391,.391-.391,1.023,0,1.414s1.023,.391,1.414,0l.293-.293,.293,.293c.195,.195,.451,.293,.707,.293s.512-.098,.707-.293c.391-.391,.391-1.023,0-1.414l-.707-.707v-2.77c.098-.035,.193-.072,.285-.116l2.25,2.25c.195,.195,.451,.293,.707,.293s.512-.098,.707-.293c.391-.391,.391-1.023,0-1.414l-2.25-2.25c.044-.093,.082-.188,.116-.285h2.77l.707,.707c.195,.195,.451,.293,.707,.293s.512-.098,.707-.293c.391-.391,.391-1.023,0-1.414l-.293-.293Zm-8.414,0c0-.551,.449-1,1-1s1,.449,1,1-.449,1-1,1-1-.449-1-1Z"/><path d="M21.707,41.293c-.391-.391-1.023-.391-1.414,0l-.707,.707h-2.77c-.035-.098-.072-.193-.116-.285l2.008-2.008c.391-.391,.391-1.023,0-1.414s-1.023-.391-1.414,0l-2.008,2.008c-.093-.044-.188-.082-.285-.116v-2.184c0-.552-.448-1-1-1s-1,.448-1,1v2.184c-.098,.035-.193,.072-.285,.116l-2.008-2.008c-.391-.391-1.023-.391-1.414,0s-.391,1.023,0,1.414l2.008,2.008c-.044,.093-.082,.188-.116,.285h-2.77l-.707-.707c-.391-.391-1.023-.391-1.414,0s-.391,1.023,0,1.414l.293,.293-.293,.293c-.391,.391-.391,1.023,0,1.414,.195,.195,.451,.293,.707,.293s.512-.098,.707-.293l.707-.707h2.77c.035,.098,.072,.193,.116,.285l-2.25,2.25c-.391,.391-.391,1.023,0,1.414,.195,.195,.451,.293,.707,.293s.512-.098,.707-.293l2.25-2.25c.093,.044,.188,.081,.285,.116v2.77l-.707,.707c-.391,.391-.391,1.023,0,1.414s1.023,.391,1.414,0l.293-.293,.293,.293c.195,.195,.451,.293,.707,.293s.512-.098,.707-.293c.391-.391,.391-1.023,0-1.414l-.707-.707v-2.77c.098-.035,.193-.072,.285-.116l2.25,2.25c.195,.195,.451,.293,.707,.293s.512-.098,.707-.293c.391-.391,.391-1.023,0-1.414l-2.25-2.25c.044-.093,.082-.188,.116-.285h2.77l.707,.707c.195,.195,.451,.293,.707,.293s.512-.098,.707-.293c.391-.391,.391-1.023,0-1.414l-.293-.293,.293-.293c.391-.391,.391-1.023,0-1.414Zm-8.707,1.707c0-.551,.449-1,1-1s1,.449,1,1-.449,1-1,1-1-.449-1-1Z"/><text x="0" y="79" fill="#000000" font-size="5px" font-weight="bold" font-family="'Helvetica Neue', Helvetica, Arial-Unicode, Arial, Sans-serif">Created by Berkah Icon</text><text x="0" y="84" fill="#000000" font-size="5px" font-weight="bold" font-family="'Helvetica Neue', Helvetica, Arial-Unicode, Arial, Sans-serif">from the Noun Project</text></svg>