<svg xmlns="http://www.w3.org/2000/svg" xmlns:xlink="http://www.w3.org/1999/xlink" version="1.1" x="0px" y="0px" viewBox="0 0 100 125" style="enable-background:new 0 0 100 100;" xml:space="preserve"><g><path d="M83.632,26.938C82.48,17.414,74.073,9.998,63.907,9.998c-9.065,0-16.826,5.8-19.156,14.183   c-9.8,0.169-18.235,6.178-21.318,14.993c-8.468-0.517-15.54,6.268-15.54,14.646c0,8.091,6.582,14.673,14.673,14.673h43.073   c6.8,0,12.332-5.532,12.332-12.332c0-2.96-1.051-5.677-2.795-7.804h6.091c5.977,0,10.84-4.863,10.84-10.84   C92.107,32.352,88.476,28.02,83.632,26.938z M65.639,63.493H22.566c-5.333,0-9.673-4.339-9.673-9.673s4.339-9.673,9.673-9.673   c0.688,0,1.399,0.081,2.112,0.24c1.333,0.297,2.662-0.533,2.977-1.863c1.864-7.865,9.067-13.358,17.518-13.358   c9.907,0,17.966,7.7,17.966,17.164c0,1.381,1.119,2.5,2.5,2.5c4.043,0,7.332,3.289,7.332,7.332S69.682,63.493,65.639,63.493z    M81.267,43.357H67.91c-1.304-9.327-8.626-16.828-18.071-18.719c2.016-5.662,7.701-9.64,14.067-9.64   c8.194,0,14.86,6.361,14.86,14.18c0,1.381,1.119,2.5,2.5,2.5c3.22,0,5.84,2.62,5.84,5.839   C87.107,40.737,84.487,43.357,81.267,43.357z"/><path d="M25.214,73.502h-9.75c-1.381,0-2.5,1.119-2.5,2.5s1.119,2.5,2.5,2.5h9.75c1.381,0,2.5-1.119,2.5-2.5   S26.595,73.502,25.214,73.502z"/><path d="M44.765,73.502h-9.75c-1.381,0-2.5,1.119-2.5,2.5s1.119,2.5,2.5,2.5h9.75c1.381,0,2.5-1.119,2.5-2.5   S46.146,73.502,44.765,73.502z"/><path d="M64.316,73.502h-9.75c-1.381,0-2.5,1.119-2.5,2.5s1.119,2.5,2.5,2.5h9.75c1.381,0,2.5-1.119,2.5-2.5   S65.697,73.502,64.316,73.502z"/><path d="M83.868,73.502h-9.75c-1.381,0-2.5,1.119-2.5,2.5s1.119,2.5,2.5,2.5h9.75c1.381,0,2.5-1.119,2.5-2.5   S85.249,73.502,83.868,73.502z"/><path d="M25.214,85.002h-9.75c-1.381,0-2.5,1.119-2.5,2.5s1.119,2.5,2.5,2.5h9.75c1.381,0,2.5-1.119,2.5-2.5   S26.595,85.002,25.214,85.002z"/><path d="M44.765,85.002h-9.75c-1.381,0-2.5,1.119-2.5,2.5s1.119,2.5,2.5,2.5h9.75c1.381,0,2.5-1.119,2.5-2.5   S46.146,85.002,44.765,85.002z"/><path d="M64.316,85.002h-9.75c-1.381,0-2.5,1.119-2.5,2.5s1.119,2.5,2.5,2.5h9.75c1.381,0,2.5-1.119,2.5-2.5   S65.697,85.002,64.316,85.002z"/><path d="M83.868,85.002h-9.75c-1.381,0-2.5,1.119-2.5,2.5s1.119,2.5,2.5,2.5h9.75c1.381,0,2.5-1.119,2.5-2.5   S85.249,85.002,83.868,85.002z"/></g><text x="0" y="115" fill="#000000" font-size="5px" font-weight="bold" font-family="'Helvetica Neue', Helvetica, Arial-Unicode, Arial, Sans-serif">Created by Tawny Whatmore</text><text x="0" y="120" fill="#000000" font-size="5px" font-weight="bold" font-family="'Helvetica Neue', Helvetica, Arial-Unicode, Arial, Sans-serif">from the Noun Project</text></svg>