<svg xmlns="http://www.w3.org/2000/svg" data-name="Layer 1" viewBox="0 0 100 125" x="0px" y="0px"><title>02Artboard 27</title><path d="M28.63,52.26A2.26,2.26,0,0,0,30.89,50a19.11,19.11,0,0,1,38.22,0,2.26,2.26,0,1,0,4.52,0,23.63,23.63,0,0,0-47.26,0A2.26,2.26,0,0,0,28.63,52.26Z"/><path d="M7.26,52.26H18a2.26,2.26,0,1,0,0-4.52H7.26a2.26,2.26,0,1,0,0,4.52Z"/><path d="M79.79,50a2.26,2.26,0,0,0,2.26,2.26H92.74a2.26,2.26,0,1,0,0-4.52H82.05A2.26,2.26,0,0,0,79.79,50Z"/><path d="M50,20.21A2.26,2.26,0,0,0,52.26,18V7.26a2.26,2.26,0,1,0-4.52,0V18A2.26,2.26,0,0,0,50,20.21Z"/><path d="M25.74,28.93a2.26,2.26,0,1,0,3.19-3.19l-7.55-7.56a2.26,2.26,0,0,0-3.2,3.2Z"/><path d="M72.67,29.6a2.22,2.22,0,0,0,1.59-.67l7.56-7.55a2.26,2.26,0,0,0-3.2-3.2l-7.55,7.56a2.27,2.27,0,0,0,1.6,3.86Z"/><path d="M7.26,73.63H71.37a2.26,2.26,0,0,0,0-4.52H7.26a2.26,2.26,0,1,0,0,4.52Z"/><path d="M92.74,58.42H28.63a2.27,2.27,0,0,0,0,4.53H92.74a2.27,2.27,0,0,0,0-4.53Z"/><path d="M71.37,90.48H7.26a2.26,2.26,0,0,0,0,4.52H71.37a2.26,2.26,0,1,0,0-4.52Z"/><path d="M92.74,79.79H28.63a2.27,2.27,0,0,0,0,4.53H92.74a2.27,2.27,0,0,0,0-4.53Z"/><text x="0" y="115" fill="#000000" font-size="5px" font-weight="bold" font-family="'Helvetica Neue', Helvetica, Arial-Unicode, Arial, Sans-serif">Created by uros vukovic</text><text x="0" y="120" fill="#000000" font-size="5px" font-weight="bold" font-family="'Helvetica Neue', Helvetica, Arial-Unicode, Arial, Sans-serif">from the Noun Project</text></svg>