<svg xmlns="http://www.w3.org/2000/svg" version="1.1" viewBox="-5.0 -10.0 110.0 135.0">
 <path d="m18.48 17.613c1.1523 0 2.082-0.93359 2.082-2.082v-5.1133c0-1.1523-0.93359-2.082-2.082-2.082-1.1523 0-2.082 0.93359-2.082 2.082v5.1133c0 1.1523 0.93359 2.082 2.082 2.082z"/>
 <path d="m42.918 17.105v-5.1133c0-1.1523-0.93359-2.082-2.082-2.082-1.1523 0-2.082 0.93359-2.082 2.082v5.1133c0 1.1523 0.93359 2.082 2.082 2.082 1.1523 0 2.082-0.93359 2.082-2.082z"/>
 <path d="m61.031 19.77v-5.1133c0-1.1523-0.93359-2.082-2.082-2.082-1.1523 0-2.082 0.93359-2.082 2.082v5.1133c0 1.1523 0.93359 2.082 2.082 2.082 1.1523 0 2.082-0.93359 2.082-2.082z"/>
 <path d="m75.711 15.531v-5.1133c0-1.1523-0.93359-2.082-2.082-2.082-1.1523 0-2.082 0.93359-2.082 2.082v5.1133c0 1.1523 0.93359 2.082 2.082 2.082 1.1523 0 2.082-0.93359 2.082-2.082z"/>
 <path d="m30.191 29.816v-5.1133c0-1.1523-0.93359-2.082-2.082-2.082-1.1523 0-2.082 0.93359-2.082 2.082v5.1133c0 1.1523 0.93359 2.082 2.082 2.082 1.1523 0 2.082-0.93359 2.082-2.082z"/>
 <path d="m82.242 32.48v-5.1133c0-1.1523-0.93359-2.082-2.082-2.082-1.1523 0-2.082 0.93359-2.082 2.082v5.1133c0 1.1523 0.93359 2.082 2.082 2.082 1.1523 0 2.082-0.93359 2.082-2.082z"/>
 <path d="m41.965 82.977v1.7812c-0.078125 3.707 3.0664 6.9648 6.7383 6.9062 3.7188 0 6.7422-3.0977 6.7422-6.9062v-27.395c2.418 0.62891 3.8125 2.2148 5.4609 3.9805 0.86328 0.88672 2.4023 0.72266 3.0938-0.29297 1.8672-2.6133 4.75-4.1094 7.9062-4.1094s6.0391 1.5 7.9297 4.1445c1.4453 2.0078 4.6367 0.09375 3.5117-2.1289-0.29297-17.727-12.945-32.145-28.84-33.238v-3.9336c0-1.1523-0.93359-2.082-2.082-2.082-1.1523 0-2.082 0.93359-2.082 2.082v3.9492c-15.949 1.2578-28.754 16.121-28.52 34.039-0.17188 1.9922 2.6055 2.9727 3.7383 1.2891 3.6484-5.4336 12.168-5.4375 15.82 0 0.77734 1.1484 2.6211 1.1445 3.3945-0.007812 1.5859-2.2188 3.9023-3.6211 6.5-4v27.699c-0.10547 3.6758-5.125 3.5391-5.1484 0v-1.7812c-0.046875-2.75-4.1211-2.7305-4.168 0zm36.852-28.336c-2.0664-1.1992-4.4219-1.8672-6.9102-1.8672-2.9219 0-5.668 0.90625-7.9688 2.5391-0.38672-9.8047-2.1016-19.152-5.082-24.66 10.258 2.7891 18.191 12.219 19.957 23.992zm-37.586 0.53125c-4.2422-3.0156-10.504-3.1719-14.902-0.37891 1.7188-11.84 9.6758-21.344 19.98-24.145-2.9648 5.4805-4.6758 14.77-5.0742 24.523zm4.1797-0.31641c0.70312-16.254 4.9102-25.074 7.1719-25.074 2.2539 0 6.4492 8.7773 7.168 24.949-1.8828-1.1289-4.0195-1.7852-6.2773-1.9141-2.8438-0.20703-5.7148 0.57031-8.0625 2.0352z"/>
<text x="0.0" y="117.5" font-size="5.0" font-weight="bold" font-family="Arbeit Regular, Helvetica, Arial-Unicode, Arial, Sans-serif" fill="#000000">Created by Selot Lo</text><text x="0.0" y="122.5" font-size="5.0" font-weight="bold" font-family="Arbeit Regular, Helvetica, Arial-Unicode, Arial, Sans-serif" fill="#000000">from Noun Project</text></svg>