<svg xmlns="http://www.w3.org/2000/svg" version="1.1" viewBox="-5.0 -10.0 110.0 135.0">
 <path d="m94.324 47.047c-1.6953-2.1055-3.9648-3.6992-6.4961-4.582-0.50781-7.3203-6.6289-13.121-14.078-13.121-1.8086 0-3.6016 0.35156-5.2695 1.0195-3.2031-4.3984-8.3633-7.0664-13.859-7.0664-9.4492 0-17.137 7.6875-17.137 17.133 0 0.66797 0.039063 1.3359 0.11719 2-2.6094 0.89062-4.9258 2.5312-6.6445 4.6992-1.6602-0.60547-3.4023-0.91016-5.1953-0.91016-2.4609 0-4.9023 0.60156-7.0586 1.7305-0.90234 0.46875-1.7617 1.0352-2.5508 1.6797-2.2812 1.8594-3.9805 4.3438-4.8828 7.1133-2.6836 0.33984-5.1562 1.7656-6.7891 3.9531-1.293 1.7383-1.9805 3.8086-1.9805 5.9883 0 2.6562 1.0312 5.1602 2.9023 7.0508 1.8477 1.8633 4.3008 2.9141 6.918 2.9648 0.039063 0.003906 0.078126 0.003906 0.11719 0.003906h26.785c4.4766 0 8.5938-2.4102 10.812-6.2305h33.062c7.9414 0 14.402-6.4648 14.402-14.406 0-3.2734-1.1289-6.4727-3.1758-9.0195zm-55.102 25.832h-26.695c-0.023438 0-0.046875 0-0.070313-0.003906-1.6406-0.015625-3.1836-0.66797-4.3398-1.832-1.1562-1.168-1.793-2.7188-1.793-4.3594 0-1.3477 0.42578-2.625 1.2266-3.7031 1.1836-1.5859 2.9922-2.4961 4.9688-2.4961h0.23438c0.89844 0 1.6758-0.625 1.8672-1.5 0.55078-2.4922 1.9531-4.7617 3.9531-6.3906 0.58984-0.48047 1.2266-0.90234 1.9102-1.2539 1.6367-0.85938 3.4141-1.2969 5.2852-1.2969 1.7617 0 3.4531 0.39062 5.0234 1.1602 1.6641 0.82031 3.125 2.0469 4.2188 3.5508 0.35938 0.49609 0.93359 0.78516 1.5469 0.78516h2.668c2.3164 0 4.4922 0.90234 6.1328 2.5391 1.6367 1.6367 2.5391 3.8125 2.5391 6.1289 0 0.3125-0.015626 0.61719-0.046876 0.92188-0.097656 0.91406-0.33594 1.8008-0.71484 2.6406-1.4062 3.1055-4.5117 5.1094-7.9141 5.1094zm43.875-6.2305h-31.617c0.015625-0.085938 0.03125-0.17578 0.046875-0.26172 0.015625-0.085938 0.03125-0.17188 0.046875-0.26172 0.019531-0.12891 0.035156-0.25781 0.050781-0.38672 0.011719-0.082031 0.023438-0.16406 0.03125-0.24609 0.015625-0.14453 0.023438-0.28516 0.035156-0.42969 0.003906-0.070312 0.011719-0.13672 0.015625-0.20703 0.011719-0.21484 0.015625-0.42969 0.015625-0.64453 0-3.3398-1.3008-6.4766-3.6602-8.832-2.3594-2.3594-5.4961-3.6602-8.8359-3.6602h-1.7344c-0.19922-0.24219-0.41016-0.47266-0.625-0.69922-0.066407-0.070312-0.13281-0.13672-0.19922-0.20703-0.15625-0.16016-0.31641-0.31641-0.48047-0.46875-0.074219-0.070312-0.14844-0.14062-0.22656-0.20703-0.17969-0.16406-0.36719-0.32031-0.55469-0.47266-0.054688-0.046874-0.10938-0.09375-0.16797-0.13672-0.24219-0.19141-0.49219-0.37891-0.74609-0.55859-0.015626-0.011719-0.027344-0.023438-0.042969-0.03125 1.5078-1.6484 3.5117-2.793 5.7188-3.2383 0.50391-0.10156 0.94922-0.40234 1.2305-0.83594 0.28125-0.43359 0.375-0.96094 0.25781-1.4648-0.22266-0.98047-0.33594-1.9805-0.33594-2.9648 0-7.3398 5.9727-13.309 13.312-13.309 4.7266 0 9.1406 2.5469 11.52 6.6445 0.52344 0.90234 1.6758 1.2188 2.5898 0.70703 1.5273-0.85547 3.2656-1.3086 5.0195-1.3086 5.6719 0 10.289 4.6133 10.289 10.289 0 0.12109-0.007812 0.24219-0.011719 0.36328-0.039062 0.92188 0.57813 1.7383 1.4766 1.9453 2.2852 0.53125 4.3594 1.8398 5.8398 3.6797 1.5234 1.8945 2.3281 4.1836 2.3281 6.6211-0.007813 5.8359-4.7539 10.582-10.586 10.582z"/>
<text x="0.0" y="117.5" font-size="5.0" font-weight="bold" font-family="Arbeit Regular, Helvetica, Arial-Unicode, Arial, Sans-serif" fill="#000000">Created by yenaburger</text><text x="0.0" y="122.5" font-size="5.0" font-weight="bold" font-family="Arbeit Regular, Helvetica, Arial-Unicode, Arial, Sans-serif" fill="#000000">from Noun Project</text></svg>