<svg xmlns="http://www.w3.org/2000/svg" xmlns:xlink="http://www.w3.org/1999/xlink" version="1.1" x="0px" y="0px" viewBox="0 0 100 125" enable-background="new 0 0 100 100" xml:space="preserve"><g><g><path fill-rule="evenodd" clip-rule="evenodd" d="M50.986,9.984c-0.422-0.138-1.41,0.29-1.44-0.24c-0.16,0-0.32,0-0.48,0    c-1.055,0.323-0.044,2.583-1.2,1.68c0.308,2.473,0.06,6.769,0.96,9.36C53.593,20.761,50.042,15.393,50.986,9.984z"/><path fill-rule="evenodd" clip-rule="evenodd" d="M37.786,22.704c0.458-0.342,1.042-0.558,1.68-0.72    c-0.588-3.799-1.267-6.915-3.36-9.6c-1.479-0.551-2.704,0.243-2.88,1.2c-0.174,0.944,1.09,1.598,1.68,2.64    C36.056,18.255,36.36,21.308,37.786,22.704z"/><path fill-rule="evenodd" clip-rule="evenodd" d="M27.706,29.424c1.015-0.025,1.434-0.646,1.68-1.44    c-0.915-1.328-2.02-2.139-1.68-3.6c-2.306-1.157-6.014-6.705-7.2-1.44C23.131,24.879,25.693,26.877,27.706,29.424z"/><path fill-rule="evenodd" clip-rule="evenodd" d="M78.346,39.504c1.322-0.659,3.102-0.945,3.841-0.48    c1.851-1.366,7.541-2.194,4.8-5.76c-3.656,1.146-5.849,2.938-9.601,4.32C77.616,38.314,77.669,39.221,78.346,39.504z"/><path fill-rule="evenodd" clip-rule="evenodd" d="M17.866,60.864c-2.005,1.456-8.01,2.752-4.56,6    c3.246-1.314,5.841-3.279,9.36-4.32C22.852,59.186,19.313,62.095,17.866,60.864z"/><path fill-rule="evenodd" clip-rule="evenodd" d="M77.386,62.544c1.119,0.33,3.258,1.629,2.641,2.16    c2.079,0.987,3.801,1.276,6.239,2.16c0.938-0.503,1.662-1.219,1.681-2.64c-3.021-1.485-6.335-2.186-9.84-3.601    C77.901,61.3,77.331,61.608,77.386,62.544z"/><path fill-rule="evenodd" clip-rule="evenodd" d="M27.706,70.225c-0.945,2.899-9.15,7.034-5.28,8.88    c1.302-0.059,0.838-0.965,2.16-0.48C25.37,76.306,33.499,71.207,27.706,70.225z"/><path fill-rule="evenodd" clip-rule="evenodd" d="M33.706,86.544c0.746,0.214,1.118,0.802,1.92,0.96    c2.679-1.613,3.201-6.04,4.32-9.84c-0.769-0.352-1.418-0.822-2.64-0.72C36.644,79.785,34.961,83.513,33.706,86.544z"/><path fill-rule="evenodd" clip-rule="evenodd" d="M48.826,79.584c-0.138,3.444,0.261,6.877,0.24,10.32    c0.905-0.185,1.147,0.293,1.92,0.24c2.109-2.618,0.52-6.692,0.48-10.561C50.975,79.213,49.317,79.213,48.826,79.584z"/><path fill-rule="evenodd" clip-rule="evenodd" d="M90.346,48.624c-3.06,0.313-6.842,0.348-10.319,0.48    c0.104,0.825-0.095,1.345-0.24,1.92c1.161,0.343,1.201,1.284,1.92,0.479c-0.094,0.343-0.288,0.405,0,0.721    c2.153-0.746,6.817,0.197,9.12-1.2c0-0.08,0-0.16,0-0.24C90.214,50.517,90.923,48.928,90.346,48.624z"/><path fill-rule="evenodd" clip-rule="evenodd" d="M62.746,22.944c0.713-2.876,2.303-6.551,3.6-9.6    c-0.976,0.016-1.158-0.761-2.159-0.72c-2.026,0.865-3.314,6.155-4.08,9.84C60.937,22.778,61.949,23.279,62.746,22.944z"/><path fill-rule="evenodd" clip-rule="evenodd" d="M72.106,29.904c2.128-2.752,4.664-5.096,6.96-7.68    c-1.318-2.138-2.853-0.599-3.36-0.96c-2.006,2.154-3.906,4.413-5.76,6.72C70.145,29.146,71.026,29.624,72.106,29.904z"/><path fill-rule="evenodd" clip-rule="evenodd" d="M52.426,26.544c-3.818-0.318-6.271,0.271-9.84,0.48    c-0.983,0.856-2.708,0.972-3.6,1.92c-0.062-0.337-0.526-0.274-0.72-0.48c0.189,0.91-0.601,0.781-1.2,1.2    c-0.679,0.475-1.99,2.348-3.84,1.92c-0.826,0.867-0.267,1.641-1.2,2.4c-0.01-0.331,0.113-0.527,0.24-0.72    c-0.62,0.85-1.401,0.843-1.44,2.64c-0.843-0.446-0.79,0.182-1.44,0.48c-0.629,1.929-2.659,4.642-3.12,7.2    c-0.23,1.277,0.711,2.253,0,3.12c-0.038-0.282,0.041-0.681-0.24-0.72c-1.066,4.069,0.059,11.526,1.92,13.439    c0.093,1.854,1.569,4.331,3.36,5.28c0.827,3.093,4.16,3.68,5.76,6c3.013,1.059,5.169,2.588,8.4,3.12    c11.125,1.833,19.053-3.521,24.48-10.561c-0.174-0.733,0.245-0.874,0.24-1.439C79.632,46.109,67.98,27.839,52.426,26.544z     M48.106,71.185c-0.204-0.045-0.226,0.093-0.24,0.239c0.248-0.98-1.263-0.062-2.16-0.239c-1.121-0.222-3.591-1.851-5.07-2.646    c-0.142-0.012-0.217-0.091-0.303-0.158c0.096,0.048,0.196,0.101,0.303,0.158c0.011,0.001,0.018,0.006,0.03,0.006    c-0.905-0.585-2.046-0.929-2.722-1.741c-0.303,0.433-0.873-1.021-1.118-0.179c-0.328-0.334-0.518-1.185-0.24-1.439    c-0.507-0.979-1.178-0.302-1.92-0.96c0.06-0.261,0.477-0.163,0.48-0.48c-1.13,0.01-0.632-1.608-2.16-1.2    c-0.088-0.408,0.188-0.452,0.48-0.479c-1.834-2.655-2.871-5.897-4.32-9.12c1.104,1.591,0.182-3.323,0.24-4.8    c0.264-6.646,5.281-12.626,8.88-15.6c4.059-2.229,9.652-3.901,15.36-3.36c5.133,1.508,9.375,3.905,12.96,6.96    c2.648,4.278,5.853,10.351,4.561,17.52C69.244,64.216,60.39,72.108,48.106,71.185z"/><path fill-rule="evenodd" clip-rule="evenodd" d="M37.546,66.145c0.097,0.255,0.239,0.466,0.398,0.658    c0.03-0.043,0.058-0.097,0.082-0.179C37.757,66.573,37.652,66.357,37.546,66.145z"/><path fill-rule="evenodd" clip-rule="evenodd" d="M21.946,39.504c0.033-0.847,0.687-1.073,0.72-1.92    c-1.535-1.055-3.177-1.376-2.88-2.64c-2.38-0.083-4.279-2.029-7.2-1.44c-0.1,1.044-0.851,1.808-0.24,2.88    C16.088,36.882,18.851,38.359,21.946,39.504z"/><path fill-rule="evenodd" clip-rule="evenodd" d="M76.906,75.504c-1.693-1.312-4.773-6.831-6.24-3.84    c0.599,0.613,1.124,2.521,1.44,3.12c0.752,1.428,6.09,7.477,7.439,2.4C79.223,76.148,78.066,76.403,76.906,75.504z"/><path fill-rule="evenodd" clip-rule="evenodd" d="M60.586,77.904c0.18,1.111,1.243,3.775,0.24,3.84c1.09,1.635,2.655,8.518,6,5.04    c-1.272-3.287-3.151-5.969-4.32-9.36C61.551,77.269,61.541,78.06,60.586,77.904z"/><path fill-rule="evenodd" clip-rule="evenodd" d="M20.026,50.784c0.556-2.843-3.926-1.655-3.6-2.88    c-2.259,0.392-5.639-0.359-7.2,1.2c0,0.64,0,1.28,0,1.92c1.494,1.355,3.428,0.088,5.28,0    C16.228,50.942,18.052,51.421,20.026,50.784z"/></g></g><text x="0" y="115" fill="#000000" font-size="5px" font-weight="bold" font-family="'Helvetica Neue', Helvetica, Arial-Unicode, Arial, Sans-serif">Created by Ralf Schmitzer</text><text x="0" y="120" fill="#000000" font-size="5px" font-weight="bold" font-family="'Helvetica Neue', Helvetica, Arial-Unicode, Arial, Sans-serif">from the Noun Project</text></svg>