<svg xmlns="http://www.w3.org/2000/svg" data-name="Layer 1" viewBox="0 0 64 80" x="0px" y="0px"><title>x</title><path d="M3.13,33.16A12.1,12.1,0,0,0,13,45.07H53.29a.75.75,0,0,0,.21,0,9.4,9.4,0,0,0-2-18.57,10,10,0,0,0-1.54.12v-.06a8.23,8.23,0,0,0-8.22-8.22h-.46a14.9,14.9,0,1,0-29.6,3.26A12,12,0,0,0,3.13,33.16ZM13,23.25h0s0,0,0,0A9.23,9.23,0,0,1,15.23,23a9.94,9.94,0,0,1,4,.8,1,1,0,0,0,.38.08,1,1,0,0,0,.89-.58A1,1,0,0,0,20,22a11.68,11.68,0,0,0-4.72-1,11.47,11.47,0,0,0-1.69.13,13.75,13.75,0,0,1-.14-1.79,13,13,0,1,1,26,0,12.87,12.87,0,0,1-.87,4.64A1,1,0,0,0,39,25.33a.84.84,0,0,0,.35.07,1,1,0,0,0,.9-.62,14.71,14.71,0,0,0,1-4.5l.46,0A6.29,6.29,0,0,1,48,26.55a6.2,6.2,0,0,1-.11,1.14h0A6,6,0,0,1,47,29.9a1,1,0,0,0,.82,1.48,1,1,0,0,0,.82-.46,8.2,8.2,0,0,0,1-2.26,8.12,8.12,0,0,1,1.82-.24,7.46,7.46,0,0,1,1.72,14.73H13.28A10.17,10.17,0,0,1,13,23.25Z"/><path d="M13.55,56.81a1.1,1.1,0,0,0-1.39.71l-.17.53a1.12,1.12,0,0,0,.72,1.39,1.26,1.26,0,0,0,.33.05,1.1,1.1,0,0,0,1.05-.77l.17-.52A1.1,1.1,0,0,0,13.55,56.81Z"/><path d="M15.6,54l.17-.52a1.1,1.1,0,1,0-2.1-.67l-.17.52a1.11,1.11,0,0,0,.72,1.39,1.26,1.26,0,0,0,.33,0A1.1,1.1,0,0,0,15.6,54Z"/><path d="M17.11,49.26l.16-.52a1.1,1.1,0,0,0-.71-1.39,1.12,1.12,0,0,0-1.39.72l-.16.52A1.1,1.1,0,0,0,15.72,50a1.27,1.27,0,0,0,.34.05A1.11,1.11,0,0,0,17.11,49.26Z"/><path d="M19.33,56.81a1.1,1.1,0,0,0-1.39.71l-.16.53a1.1,1.1,0,0,0,.71,1.39,1.33,1.33,0,0,0,.34.05,1.11,1.11,0,0,0,1.05-.77L20,58.2A1.1,1.1,0,0,0,19.33,56.81Z"/><path d="M21.38,54l.17-.52a1.1,1.1,0,1,0-2.1-.67l-.17.52A1.12,1.12,0,0,0,20,54.71a1.26,1.26,0,0,0,.33,0A1.1,1.1,0,0,0,21.38,54Z"/><path d="M22.89,49.26l.17-.52a1.12,1.12,0,0,0-.72-1.39,1.1,1.1,0,0,0-1.38.72l-.17.52A1.1,1.1,0,0,0,21.5,50a1.33,1.33,0,0,0,.34.05A1.1,1.1,0,0,0,22.89,49.26Z"/><path d="M25.11,56.81a1.12,1.12,0,0,0-1.39.72l-.16.52a1.1,1.1,0,0,0,.72,1.39,1.26,1.26,0,0,0,.33.05,1.1,1.1,0,0,0,1.05-.77l.17-.52A1.11,1.11,0,0,0,25.11,56.81Z"/><path d="M27.17,54l.16-.52a1.1,1.1,0,1,0-2.1-.67l-.17.52a1.12,1.12,0,0,0,.72,1.39,1.27,1.27,0,0,0,.34,0A1.11,1.11,0,0,0,27.17,54Z"/><path d="M28.67,49.26l.17-.52a1.1,1.1,0,1,0-2.1-.67l-.17.52A1.1,1.1,0,0,0,27.28,50a1.4,1.4,0,0,0,.34.05A1.1,1.1,0,0,0,28.67,49.26Z"/><path d="M29.56,57.52l-.17.53a1.1,1.1,0,0,0,.71,1.39,1.33,1.33,0,0,0,.34.05,1.1,1.1,0,0,0,1-.77l.17-.52a1.12,1.12,0,0,0-.72-1.39A1.09,1.09,0,0,0,29.56,57.52Z"/><path d="M31.61,54.71a1.27,1.27,0,0,0,.34,0A1.11,1.11,0,0,0,33,54l.16-.52a1.1,1.1,0,0,0-.71-1.39,1.12,1.12,0,0,0-1.39.72l-.17.52A1.12,1.12,0,0,0,31.61,54.71Z"/><path d="M34.5,49.26l.17-.52a1.1,1.1,0,1,0-2.1-.67l-.17.52A1.11,1.11,0,0,0,33.12,50a1.26,1.26,0,0,0,.33.05A1.1,1.1,0,0,0,34.5,49.26Z"/><path d="M36.72,56.81a1.1,1.1,0,0,0-1.38.72l-.17.52a1.12,1.12,0,0,0,.72,1.39,1.26,1.26,0,0,0,.33.05,1.1,1.1,0,0,0,1.05-.77l.17-.52A1.11,1.11,0,0,0,36.72,56.81Z"/><path d="M38.78,54l.17-.52a1.12,1.12,0,0,0-.72-1.39,1.09,1.09,0,0,0-1.38.72l-.17.52a1.1,1.1,0,0,0,.71,1.39,1.33,1.33,0,0,0,.34,0A1.1,1.1,0,0,0,38.78,54Z"/><path d="M38.9,50a1.26,1.26,0,0,0,.33.05,1.1,1.1,0,0,0,1.05-.77l.17-.52a1.1,1.1,0,1,0-2.1-.67l-.17.52A1.12,1.12,0,0,0,38.9,50Z"/><path d="M43.08,58.72l.17-.52a1.11,1.11,0,1,0-2.11-.67l-.16.52a1.1,1.1,0,0,0,.71,1.39,1.33,1.33,0,0,0,.34.05A1.11,1.11,0,0,0,43.08,58.72Z"/><path d="M44.58,54l.17-.52a1.1,1.1,0,1,0-2.1-.67l-.17.52a1.12,1.12,0,0,0,.72,1.39,1.26,1.26,0,0,0,.33,0A1.1,1.1,0,0,0,44.58,54Z"/><path d="M46.09,49.26l.17-.52a1.12,1.12,0,0,0-.72-1.39,1.1,1.1,0,0,0-1.38.72l-.17.52A1.1,1.1,0,0,0,44.7,50,1.33,1.33,0,0,0,45,50,1.1,1.1,0,0,0,46.09,49.26Z"/><path d="M48.28,56.81a1.12,1.12,0,0,0-1.39.72l-.16.52a1.1,1.1,0,0,0,.71,1.39,1.33,1.33,0,0,0,.34.05,1.11,1.11,0,0,0,1-.77L49,58.2A1.11,1.11,0,0,0,48.28,56.81Z"/><path d="M50.33,54l.17-.52a1.1,1.1,0,1,0-2.1-.67l-.17.52A1.12,1.12,0,0,0,49,54.71a1.26,1.26,0,0,0,.33,0A1.1,1.1,0,0,0,50.33,54Z"/><path d="M51.84,49.26l.17-.52a1.12,1.12,0,0,0-.72-1.39,1.1,1.1,0,0,0-1.38.72l-.17.52A1.1,1.1,0,0,0,50.45,50a1.33,1.33,0,0,0,.34.05A1.1,1.1,0,0,0,51.84,49.26Z"/><text x="0" y="79" fill="#000000" font-size="5px" font-weight="bold" font-family="'Helvetica Neue', Helvetica, Arial-Unicode, Arial, Sans-serif">Created by Sahab Uddin</text><text x="0" y="84" fill="#000000" font-size="5px" font-weight="bold" font-family="'Helvetica Neue', Helvetica, Arial-Unicode, Arial, Sans-serif">from the Noun Project</text></svg>