<svg xmlns="http://www.w3.org/2000/svg" version="1.1" viewBox="-5.0 -10.0 110.0 135.0">
 <path d="m83.594 32.703c-0.3125 0-0.60938 0-0.90625 0.03125-1.1406-12.359-11.078-21.797-23.312-21.797-7.2188 0-13.953 3.3906-18.391 9.1719-2.6094-2.6719-6.0625-4.1562-9.7344-4.1562-6.6875 0-12.406 5.0156-13.766 11.859-8.1562 1.0156-14.359 8.0312-14.359 16.5 0 9.1719 7.3594 16.625 16.406 16.625h14.328l-0.95312 2.5781c-0.17188 0.48438-0.10938 1.0156 0.1875 1.4375s0.76562 0.67188 1.2812 0.67188h9.0312l-4.3125 21.562c-0.14062 0.73438 0.25 1.4688 0.9375 1.75 0.1875 0.078125 0.39062 0.125 0.59375 0.125 0.51562 0 1-0.25 1.2969-0.70312l18.281-27.422h23.375c7.3281 0 13.281-6.3438 13.281-14.125s-5.9531-14.109-13.281-14.109zm-37.078 30.375c-0.29688-0.35938-0.73438-0.57812-1.2031-0.57812h-8.7031l0.92188-2.5s0-0.03125 0.015625-0.046875l8.8438-24.016h10.875l-4.0781 13.609c-0.14062 0.46875-0.046875 0.98438 0.25 1.375s0.76562 0.625 1.25 0.625h8.0156l-19 28.5 3.1406-15.688c0.09375-0.45312-0.03125-0.9375-0.32812-1.2969zm37.078-5.2656h-21.297l4.625-6.9531c0.3125-0.48438 0.34375-1.0938 0.078125-1.6094s-0.79688-0.82812-1.375-0.82812h-8.8438l4.0781-13.609c0.14062-0.46875 0.046875-0.98438-0.25-1.375s-0.76562-0.625-1.25-0.625h-14.062c-0.65625 0-1.2344 0.40625-1.4688 1.0156l-8.8281 23.984h-15.484c-7.3281 0-13.281-6.0625-13.281-13.5s5.5625-13.156 12.672-13.484c0.76562-0.03125 1.3906-0.625 1.4844-1.375 0.6875-5.9062 5.3438-10.359 10.859-10.359 3.375 0 6.5 1.6406 8.5938 4.5156 0.29688 0.42188 0.78125 0.65625 1.3125 0.64062 0.51562-0.015625 0.98438-0.28125 1.2656-0.71875 3.7812-5.9219 10.109-9.4531 16.953-9.4531 11.109 0 20.016 9 20.297 20.484 0 0.46875 0.23438 0.90625 0.59375 1.1875 0.375 0.28125 0.84375 0.39062 1.2969 0.29688 0.64062-0.14062 1.2969-0.21875 2.0156-0.21875 5.5938 0 10.156 4.9219 10.156 10.984s-4.5625 11-10.156 11z"/>
<text x="0.0" y="117.5" font-size="5.0" font-weight="bold" font-family="Arbeit Regular, Helvetica, Arial-Unicode, Arial, Sans-serif" fill="#000000">Created by Icon Lauk</text><text x="0.0" y="122.5" font-size="5.0" font-weight="bold" font-family="Arbeit Regular, Helvetica, Arial-Unicode, Arial, Sans-serif" fill="#000000">from Noun Project</text></svg>