<svg xmlns="http://www.w3.org/2000/svg" xmlns:xlink="http://www.w3.org/1999/xlink" xmlns:xodm="http://www.corel.com/coreldraw/odm/2003" xml:space="preserve" version="1.1" style="shape-rendering:geometricPrecision;text-rendering:geometricPrecision;image-rendering:optimizeQuality;" viewBox="0 0 846.66 1058.325" x="0px" y="0px" fill-rule="evenodd" clip-rule="evenodd"><defs><style type="text/css">
   
    .fil0 {fill:black;fill-rule:nonzero}
   
  </style></defs><g><path class="fil0" d="M608.14 602.52c16.35,0.92 32.31,-2.63 46.35,-9.86 14.28,-7.36 26.63,-18.6 35.39,-32.85 8.79,-14.29 13.28,-30.38 13.41,-46.41 0.13,-16.07 -4.07,-32.25 -12.6,-46.66 -8.51,-14.38 -20.68,-25.83 -34.87,-33.45 -14.19,-7.62 -30.47,-11.44 -47.18,-10.61 -9.31,0.43 -17.23,-6.77 -17.66,-16.08 -0.14,-2.97 0.5,-5.8 1.74,-8.28 7.71,-17.15 9.63,-36.78 5.35,-55.03 -4.18,-18.05 -14.24,-34.81 -29.44,-47.25 -15.21,-12.46 -33.63,-19.02 -52.14,-19.56 -19.07,-0.55 -37.75,5.19 -53.29,16.45 -7.56,5.47 -18.14,3.79 -23.61,-3.77 -0.87,-1.2 -1.55,-2.47 -2.06,-3.78 -14.32,-30.85 -39.18,-53.79 -68.47,-66.17 -29.53,-12.49 -63.68,-14.28 -96.09,-2.71 -32.39,11.57 -57.66,34.58 -72.6,62.95 -14.95,28.41 -19.62,62.28 -10.83,95.52 2.37,9.02 -3.02,18.27 -12.04,20.64 -1.93,0.51 -3.87,0.66 -5.76,0.49 -19.53,-1.64 -38.68,2.21 -55.46,10.65l-0.89 0.41c-16.44,8.45 -30.67,21.37 -40.78,37.78 -10.21,16.58 -15.33,35.44 -15.33,54.36 0,18.9 5.12,37.77 15.33,54.35 10.25,16.64 24.82,29.71 41.67,38.19 16.77,8.43 35.93,12.3 55.46,10.62l434.3 -0.07 2.1 0.13zm-127.24 129.43c6.61,-6.61 17.33,-6.61 23.94,0 6.61,6.61 6.61,17.33 0,23.94l-59.82 59.81c-6.61,6.61 -17.33,6.61 -23.94,0 -6.61,-6.61 -6.61,-17.33 0,-23.94l59.82 -59.81zm-245.15 0c6.61,-6.61 17.33,-6.61 23.94,0 6.61,6.61 6.61,17.33 0,23.94l-59.82 59.81c-6.61,6.61 -17.33,6.61 -23.94,0 -6.61,-6.61 -6.61,-17.33 0,-23.94l59.82 -59.81zm408.59 -61.29c6.61,-6.61 17.33,-6.61 23.94,0 6.61,6.61 6.61,17.33 0,23.94l-59.82 59.82c-6.61,6.61 -17.33,6.61 -23.94,0 -6.61,-6.61 -6.61,-17.33 0,-23.94l59.82 -59.82zm-245.16 0c6.61,-6.61 17.33,-6.61 23.94,0 6.61,6.61 6.61,17.33 0,23.94l-59.81 59.82c-6.61,6.61 -17.33,6.61 -23.94,0 -6.61,-6.61 -6.61,-17.33 0,-23.94l59.81 -59.82zm-245.15 0c6.61,-6.61 17.33,-6.61 23.94,0 6.61,6.61 6.61,17.33 0,23.94l-59.82 59.82c-6.61,6.61 -17.33,6.61 -23.94,0 -6.61,-6.61 -6.61,-17.33 0,-23.94l59.82 -59.82zm556.66 -510.23c-6.57,6.61 -17.27,6.63 -23.88,0.06 -6.61,-6.57 -6.63,-17.27 -0.06,-23.88l43.2 -43.23c6.57,-6.61 17.27,-6.63 23.88,-0.06 6.61,6.57 6.63,17.27 0.06,23.88l-43.2 43.23zm93.63 78.49c9.35,0 16.94,7.59 16.94,16.94 0,9.35 -7.59,16.94 -16.94,16.94l-61.12 0c-9.35,0 -16.94,-7.59 -16.94,-16.94 0,-9.35 7.59,-16.94 16.94,-16.94l61.12 0zm-196.05 -134.9c0,9.35 -7.59,16.94 -16.94,16.94 -9.35,0 -16.94,-7.59 -16.94,-16.94l0 -61.09c0,-9.35 7.59,-16.94 16.94,-16.94 9.35,0 16.94,7.59 16.94,16.94l0 61.09zm145.63 290.48c6.43,6.43 6.73,17.21 0,23.94 -6.61,6.61 -17.33,6.61 -23.94,0l-43.21 -43.21c-6.61,-6.61 -6.61,-17.33 0,-23.94 6.61,-6.61 17.33,-6.61 23.94,0l43.21 43.21zm-257.96 -257.96c6.61,6.61 6.61,17.33 0,23.94 -6.61,6.61 -17.33,6.61 -23.94,0l-43.21 -43.21c-6.61,-6.61 -6.61,-17.33 0,-23.94 6.61,-6.61 17.33,-6.61 23.94,0l43.21 43.21zm-15.97 111.03c1.98,-27.48 14.01,-52.25 32.41,-70.66 20.2,-20.26 48.14,-32.77 78.97,-32.77 30.76,0 58.68,12.52 78.93,32.74l0.09 0.09c20.21,20.25 32.71,48.16 32.71,78.91 0,25.47 -8.57,48.99 -22.99,67.82 -11.87,15.51 -27.73,27.84 -46.04,35.43 0.32,10.3 -0.68,20.7 -3.07,30.94 14.39,2.08 28.21,6.67 40.84,13.46 19.52,10.49 36.26,26.23 47.97,46.01 11.69,19.73 17.42,41.95 17.24,64.12 -0.18,22.22 -6.31,44.37 -18.31,63.87 -12.02,19.55 -29.03,35.01 -48.75,45.17 -19.38,9.98 -41.4,14.87 -63.92,13.57l-432.24 0c-25.52,2.04 -50.63,-3.14 -72.75,-14.27 -22.28,-11.21 -41.55,-28.52 -55.17,-50.63 -13.65,-22.17 -20.49,-47.17 -20.49,-72.07 0,-24.92 6.84,-49.92 20.49,-72.08 13.4,-21.74 32.31,-38.88 54.24,-50.12l0.93 -0.51c15.98,-8.03 33.51,-12.96 51.62,-14.31 -4.49,-34.66 2.21,-68.96 17.79,-98.57 18.78,-35.68 50.51,-64.59 91.12,-79.09 40.59,-14.5 83.43,-12.22 120.57,3.49 31.66,13.39 59.18,36.55 77.68,67.41 6.51,-3.28 13.25,-5.93 20.13,-7.95zm147.92 77.12c9.93,-5.28 18.57,-12.64 25.34,-21.49 10.01,-13.07 15.97,-29.49 15.97,-47.32 0,-21.55 -8.7,-41.03 -22.74,-55.06 -14.09,-14.1 -33.57,-22.8 -55.11,-22.8 -21.5,0 -40.98,8.72 -55.06,22.8 -11.16,11.1 -18.93,25.62 -21.69,41.87l2.81 0.05c25.92,0.76 51.59,9.85 72.66,27.1 17.98,14.73 30.8,33.88 37.82,54.85zm-220.32 -31.12c4.2,8.32 0.85,18.49 -7.47,22.69 -8.32,4.2 -18.49,0.85 -22.69,-7.47l-0.57 -1.13c-4.2,-8.32 -0.85,-18.49 7.47,-22.69 8.32,-4.2 18.49,-0.85 22.69,7.47l0.57 1.13zm-48.94 -45.6c8.54,3.76 12.43,13.75 8.67,22.29 -3.76,8.54 -13.75,12.43 -22.29,8.67 -7.92,-3.49 -16.44,-5.52 -25.06,-5.83 -8.36,-0.31 -16.96,0.94 -25.36,3.93 -16.61,5.96 -29.62,17.81 -37.3,32.4 -7.69,14.61 -10.1,32.03 -5.59,49.09 2.37,9.02 -3.02,18.27 -12.04,20.64 -9.02,2.37 -18.27,-3.02 -20.64,-12.04 -6.75,-25.52 -3.14,-51.56 8.37,-73.43 11.53,-21.89 30.98,-39.64 55.83,-48.52 12.49,-4.43 25.32,-6.27 37.93,-5.81 13.08,0.48 25.81,3.46 37.48,8.61z"/></g><text x="0" y="861.66" fill="#000000" font-size="5px" font-weight="bold" font-family="'Helvetica Neue', Helvetica, Arial-Unicode, Arial, Sans-serif">Created by Imam Kurniadi</text><text x="0" y="866.66" fill="#000000" font-size="5px" font-weight="bold" font-family="'Helvetica Neue', Helvetica, Arial-Unicode, Arial, Sans-serif">from the Noun Project</text></svg>